<svg id="ico_notice" xmlns="http://www.w3.org/2000/svg" xmlns:xlink="http://www.w3.org/1999/xlink" width="35" height="35" viewBox="0 0 35 35">
  <defs>
    <clipPath id="clip-path">
      <rect id="사각형_3620" data-name="사각형 3620" width="30" height="29.849" fill="none"/>
    </clipPath>
  </defs>
  <rect id="사각형_3621" data-name="사각형 3621" width="35" height="35" fill="none"/>
  <g id="그룹_4611" data-name="그룹 4611" transform="translate(3 3)">
    <g id="그룹_4601" data-name="그룹 4601" clip-path="url(#clip-path)">
      <path id="패스_4105" data-name="패스 4105" d="M27.689,54.686a.747.747,0,0,0-.747.747v6.634A2.244,2.244,0,0,1,24.7,64.308H3.736a2.244,2.244,0,0,1-2.241-2.241V42.6a2.244,2.244,0,0,1,2.241-2.241H10.37a.747.747,0,0,0,0-1.494H3.736A3.74,3.74,0,0,0,0,42.6v19.47A3.74,3.74,0,0,0,3.736,65.8H24.7a3.74,3.74,0,0,0,3.736-3.736V55.433a.747.747,0,0,0-.747-.747" transform="translate(0 -35.954)" fill="#bc44bd"/>
      <path id="패스_4106" data-name="패스 4106" d="M128.1.985a3.362,3.362,0,0,0-4.755,0l-13.33,13.33a.748.748,0,0,0-.192.329l-1.753,6.328a.747.747,0,0,0,.919.92l6.328-1.753a.747.747,0,0,0,.329-.192l13.329-13.33a3.366,3.366,0,0,0,0-4.755ZM111.648,14.8,122.558,3.89l3.518,3.518-10.91,10.909Zm-.7,1.41,2.811,2.811L109.868,20.1Zm16.98-10.65-.792.792-3.519-3.519.793-.792a1.868,1.868,0,0,1,2.641,0l.877.877a1.871,1.871,0,0,1,0,2.642" transform="translate(-99.965 0)" fill="#bc44bd"/>
    </g>
  </g>
</svg>
